<svg width="24" height="26" viewBox="0 0 24 26" fill="none" xmlns="http://www.w3.org/2000/svg">
<path d="M6.39321 8.02778V6.90383C6.39321 4.29674 8.63028 1.736 11.4112 1.49267C12.1839 1.4215 12.9639 1.50278 13.701 1.73129C14.4382 1.9598 15.1162 2.33047 15.6913 2.81944C16.2664 3.30841 16.726 3.90486 17.0404 4.57039C17.3548 5.23592 17.5171 5.9558 17.5168 6.68368V8.2827M8.24714 24.6321H15.6629C20.6314 24.6321 21.5213 22.7665 21.7808 20.4955L22.7078 13.5432C23.0415 10.716 22.1764 8.41015 16.8988 8.41015H7.01118C1.73366 8.41015 0.868487 10.716 1.20219 13.5432L2.12916 20.4955C2.38871 22.7665 3.2786 24.6321 8.24714 24.6321Z" stroke="white" stroke-width="1.5" stroke-miterlimit="10" stroke-linecap="round" stroke-linejoin="round"/>
</svg>
